HIERARCHY
ROOT root
{
	OFFSET 0.000000 0.000000 0.000000
	CHANNELS 6 Xposition Yposition Zposition Zrotation Yrotation Xrotation
	JOINT lhip
	{
		OFFSET 0.058581 -0.082280 -0.017664
		CHANNELS 3 Zrotation Yrotation Xrotation
		JOINT lknee
		{
			OFFSET 0.043451 -0.386469 0.008037
			CHANNELS 3 Zrotation Yrotation Xrotation
			JOINT lankle
			{
				OFFSET -0.014790 -0.426874 -0.037428
				CHANNELS 3 Zrotation Yrotation Xrotation
				JOINT ltoe
				{
					OFFSET 0.041054 -0.060286 0.122042
					CHANNELS 3 Zrotation Yrotation Xrotation
					End Site
					{
						OFFSET 0.000000 0.000000 0.000000
					}
				}
			}
		}
	}
	JOINT rhip
	{
		OFFSET -0.060310 -0.090513 -0.013543
		CHANNELS 3 Zrotation Yrotation Xrotation
		JOINT rknee
		{
			OFFSET -0.043257 -0.383688 -0.004843
			CHANNELS 3 Zrotation Yrotation Xrotation
			JOINT rankle
			{
				OFFSET 0.019056 -0.420046 -0.034562
				CHANNELS 3 Zrotation Yrotation Xrotation
				JOINT rtoe
				{
					OFFSET -0.034840 -0.062106 0.130323
					CHANNELS 3 Zrotation Yrotation Xrotation
					End Site
					{
						OFFSET 0.000000 0.000000 0.000000
					}
				}
			}
		}
	}
	JOINT lowerback
	{
		OFFSET 0.004439 0.124404 -0.038385
		CHANNELS 3 Zrotation Yrotation Xrotation
		JOINT upperback
		{
			OFFSET 0.004488 0.137956 0.026820
			CHANNELS 3 Zrotation Yrotation Xrotation
			JOINT chest
			{
				OFFSET -0.002265 0.056032 0.002855
				CHANNELS 3 Zrotation Yrotation Xrotation
				JOINT lowerneck
				{
					OFFSET -0.013390 0.211636 -0.033468
					CHANNELS 3 Zrotation Yrotation Xrotation
					JOINT upperneck
					{
						OFFSET 0.010113 0.088937 0.050410
						CHANNELS 3 Zrotation Yrotation Xrotation
						End Site
						{
							OFFSET 0.000000 0.000000 0.000000
						}
					}
				}
				JOINT lclavicle
				{
					OFFSET 0.071702 0.114000 -0.018898
					CHANNELS 3 Zrotation Yrotation Xrotation
					JOINT lshoulder
					{
						OFFSET 0.122921 0.045205 -0.019046
						CHANNELS 3 Zrotation Yrotation Xrotation
						JOINT lelbow
						{
							OFFSET 0.255332 -0.015649 -0.022946
							CHANNELS 3 Zrotation Yrotation Xrotation
							JOINT lwrist
							{
								OFFSET 0.265709 0.012698 -0.007375
								CHANNELS 3 Zrotation Yrotation Xrotation
								End Site
								{
									OFFSET 0.000000 0.000000 0.000000
								}
							}
						}
					}
				}
				JOINT rclavicle
				{
					OFFSET -0.082954 0.112472 -0.023707
					CHANNELS 3 Zrotation Yrotation Xrotation
					JOINT rshoulder
					{
						OFFSET -0.113228 0.046853 -0.008472
						CHANNELS 3 Zrotation Yrotation Xrotation
						JOINT relbow
						{
							OFFSET -0.260127 -0.014369 -0.031269
							CHANNELS 3 Zrotation Yrotation Xrotation
							JOINT rwrist
							{
								OFFSET -0.269108 0.006794 -0.006027
								CHANNELS 3 Zrotation Yrotation Xrotation
								End Site
								{
									OFFSET 0.000000 0.000000 0.000000
								}
							}
						}
					}
				}
			}
		}
	}
}
MOTION
Frames: 17
Frame Time: 0.033333
-0.188049 0.269665 1.034275 90.555331 -1.201501 90.162842 -1.593462 -1.949933 -0.989562 -3.555870 -10.771381 7.524732 -0.983367 6.904296 -2.848108 0.000000 -0.000000 0.000000 0.048593 -3.254265 -3.700036 0.046382 -2.722015 11.247700 3.364432 -9.071799 0.045469 0.000000 -0.000000 0.000000 1.029466 3.117699 15.583177 1.407495 -2.747885 -5.575610 2.031721 0.314722 -4.609068 0.031639 -0.057798 -12.300288 0.703908 2.604104 1.506043 -6.109438 -25.065821 -8.025526 -17.240376 -39.569045 -3.163933 58.467143 -57.534810 -56.937824 11.408996 -8.457611 -21.866528 2.057798 26.787367 -9.250570 14.427540 40.964661 -7.586358 -52.810861 54.534033 -53.977793 -8.944629 7.629952 -18.702546 
-0.183476 0.268719 1.025800 90.408697 -1.215332 89.369253 -1.751720 -2.061267 0.219744 -3.714066 -10.261251 8.110663 0.365489 6.733746 -5.952172 0.000000 -0.000000 0.000000 -0.121515 -3.094720 -2.845973 0.000771 -3.353586 12.257636 3.196735 -8.361217 -3.378383 0.000000 -0.000000 0.000000 0.689733 2.958610 14.749753 1.588891 -2.362301 -5.993759 1.743593 0.047184 -4.090284 0.373406 -0.290690 -11.405905 0.104625 3.242244 2.169363 -11.693415 -20.287963 -4.288015 -23.320451 -37.557297 0.295529 70.530560 -63.875793 -65.330012 12.475071 -9.035561 -19.925828 7.366727 22.642203 -6.823137 20.614171 38.621279 -3.040903 -60.668969 60.786630 -59.088406 -7.199626 9.174177 -15.096735 
-0.179094 0.267979 1.018401 90.195892 -1.106902 88.504598 -1.812405 -2.192615 1.819083 -3.596926 -9.921503 7.995720 1.762027 6.717869 -8.625105 0.000000 -0.000000 0.000000 -0.145292 -2.882150 -1.616731 0.003388 -3.873798 12.760179 2.722638 -7.871156 -5.753155 0.000000 -0.000000 0.000000 0.554111 2.700758 13.828852 1.730581 -1.779719 -5.436433 1.429212 -0.177452 -3.415899 0.923350 -0.276662 -12.517142 -0.854779 3.310665 3.036904 -16.403820 -14.543206 -1.824180 -30.290231 -34.893031 4.480552 81.802084 -68.794353 -74.002187 12.876123 -10.089100 -19.178456 12.107630 17.919486 -5.184404 26.669449 35.285610 1.747787 -69.760142 65.920877 -66.140217 -5.481649 10.324785 -13.364021 
-0.175702 0.267216 1.012042 90.276079 -1.037656 87.922765 -1.921420 -2.354365 2.719121 -3.658528 -9.857269 8.410594 2.697103 7.105743 -10.843938 0.000000 -0.000000 0.000000 -0.116459 -2.515579 -0.606112 0.038843 -4.296697 13.037381 2.188873 -7.912883 -8.305337 0.000000 -0.000000 0.000000 0.360422 2.472276 13.220677 1.899365 -1.363508 -6.010533 1.167914 -0.764617 -2.279845 1.322488 -0.511250 -12.601046 -1.368406 3.957916 3.097340 -20.265129 -8.816850 1.312277 -37.014994 -30.462934 7.554567 89.812436 -72.121055 -79.307975 11.423495 -10.474014 -20.575514 15.763758 12.963215 -3.388999 33.043752 30.717000 5.991031 -77.446270 70.106389 -72.018897 -3.904872 11.906443 -14.154173 
-0.172615 0.266395 1.006559 90.281129 -1.187888 87.573243 -2.228375 -2.431180 3.595851 -3.622524 -9.918480 8.179096 3.479729 8.049391 -12.127863 0.000000 -0.000000 0.000000 -0.180453 -2.420446 0.143281 -0.019090 -4.357700 13.139791 1.615879 -8.252890 -10.236005 0.000000 -0.000000 0.000000 -0.132946 2.143760 13.226661 1.878702 -0.852798 -7.532841 0.802257 -1.136807 -1.220777 2.067842 -0.965837 -12.921010 -1.539001 4.448849 3.186681 -23.169820 -2.571798 3.551351 -42.796802 -25.560295 9.958786 84.760792 -75.878060 -74.150555 11.130826 -9.279881 -22.155798 19.574153 7.062882 -2.441972 38.783059 25.859572 9.278883 -71.911543 73.946403 -65.174116 -3.175463 11.878741 -11.468367 
-0.170964 0.265593 1.001470 90.484569 -1.002661 87.034575 -2.129355 -2.650346 4.440684 -3.691927 -10.013291 8.142898 3.764408 8.305804 -13.822598 0.000000 -0.000000 0.000000 0.091824 -2.222656 1.141094 -0.053907 -4.624572 13.011529 1.103948 -8.539445 -11.781712 0.000000 -0.000000 0.000000 -0.232394 2.024575 11.803635 2.041586 -0.560336 -5.836321 0.438228 -1.393060 -0.686862 2.835332 -0.901726 -13.489979 -2.072918 3.873321 2.454896 -25.359762 1.717579 5.377257 -47.905998 -20.591862 11.309956 64.180951 -75.724601 -54.694148 9.496171 -7.825965 -21.627423 22.695143 3.095760 -1.332979 42.333916 20.923901 10.426467 -55.488354 73.914936 -49.949775 0.906066 11.700504 -10.827440 
-0.170861 0.264957 0.997972 90.476424 -0.303754 87.506462 -1.273382 -2.150611 3.456015 -3.171086 -7.578867 9.065440 4.175272 5.403857 -15.166379 0.000000 -0.000000 0.000000 1.017215 -2.181721 0.019732 -0.723674 -5.433326 14.553335 2.690042 -7.643362 -13.153949 0.000000 -0.000000 0.000000 0.066360 0.763275 9.344092 1.667875 -0.117783 -2.366809 0.908303 -1.717968 -0.702833 3.196011 3.941466 -16.474939 -2.937880 -0.020003 2.416700 -27.623268 4.254691 -1.665819 -52.381497 -9.323205 12.559174 40.674326 -72.422190 -26.250988 4.897446 -7.356803 -22.357583 26.792840 1.747494 -3.349481 45.232301 13.224116 16.691450 -49.981783 67.369751 -39.111080 3.988702 9.422909 -16.514852 
-0.171036 0.265186 0.997501 90.800292 -0.166589 87.153337 -1.174175 -2.023140 3.593071 -3.178505 -8.091604 9.390762 3.967705 5.581667 -15.250642 0.000000 -0.000000 0.000000 0.974005 -2.154749 0.098729 -0.418836 -5.358339 15.244526 2.811575 -8.050991 -13.514206 0.000000 -0.000000 0.000000 0.025235 0.848425 9.266789 1.793491 -0.102995 -1.866716 0.923968 -1.943015 -0.420242 3.362956 3.912984 -17.182485 -3.267195 -0.444308 1.791041 -29.902035 6.705096 -0.941787 -54.739345 -6.781945 10.979952 27.779072 -63.381154 -13.339226 2.849507 -9.168934 -18.881309 29.163145 -0.886025 -2.378081 47.056698 9.158085 16.070331 -37.216690 61.040278 -27.433211 4.877095 8.565842 -17.382106 
-0.172138 0.264999 0.998023 90.802696 -0.066259 87.134817 -0.931187 -1.839782 3.254148 -3.484352 -8.593901 9.818571 4.209186 6.064363 -15.211887 0.000000 -0.000000 0.000000 1.094877 -2.475940 -0.087464 -0.223680 -4.564836 15.591634 2.525243 -8.546931 -13.730311 0.000000 -0.000000 0.000000 0.033127 1.225493 8.958806 1.813522 -0.135116 -1.598336 1.049743 -1.959588 -0.340188 2.591961 3.225155 -17.018374 -2.562103 -0.436908 1.109493 -30.671732 7.981619 -0.308637 -57.181936 -3.602261 9.571150 23.771928 -53.809321 -9.709283 5.340034 -4.765174 -16.531796 30.537314 -2.158466 -1.092944 49.161410 5.125308 14.739388 -31.957080 53.287399 -22.589672 5.506819 6.227383 -15.972035 
-0.172915 0.265392 0.997295 90.710468 0.015304 87.026249 -0.796053 -1.528999 3.165925 -3.744495 -9.299234 10.050874 4.687947 6.667140 -14.937625 0.000000 -0.000000 0.000000 1.126808 -2.642918 0.243528 0.070281 -3.988262 15.188722 1.810415 -8.921667 -13.711439 0.000000 -0.000000 0.000000 -0.095354 1.378068 8.240240 2.048790 -0.167290 -1.031851 1.259822 -1.550303 -0.053111 2.080342 2.669462 -15.840264 -2.413928 -0.584069 -0.068284 -30.333191 8.519840 0.132266 -59.797212 -2.301085 8.647965 19.965713 -42.572439 -6.715212 6.019385 -1.078792 -17.442865 31.315004 -3.441819 0.257599 50.985598 3.190055 13.336428 -28.439214 45.241755 -19.198529 5.201071 5.769651 -14.993774 
-0.174189 0.266634 0.997198 90.587319 0.039523 86.971458 -0.847739 -1.368545 3.125886 -3.779191 -9.674399 10.073444 4.731264 7.162609 -14.839466 0.000000 -0.000000 0.000000 1.109978 -2.732329 0.457844 0.224857 -3.339951 14.798487 1.895254 -9.267253 -13.535045 0.000000 -0.000000 0.000000 0.216574 1.599547 8.762545 1.990579 -0.147710 -1.463861 1.218545 -1.544458 -0.006101 1.547980 2.717430 -16.213740 -2.281918 -0.518917 0.215217 -30.513110 9.289651 0.086540 -59.983048 -1.215544 7.194539 15.535589 -32.669121 -5.119497 4.837798 -0.516367 -17.462963 31.747914 -4.825204 -0.349514 52.544287 0.884220 12.460397 -25.131051 38.290142 -17.293714 5.382455 4.487317 -14.559941 
-0.176273 0.267854 0.997528 90.556760 0.028755 86.890322 -0.879334 -1.190813 3.291593 -3.797651 -10.078751 9.675686 4.688005 7.461573 -14.401613 0.000000 -0.000000 0.000000 1.127018 -2.192244 0.622818 0.391145 -3.122019 14.511983 1.805300 -9.897506 -13.225056 0.000000 -0.000000 0.000000 0.458834 1.376428 9.340444 1.877816 -0.246728 -2.011332 1.192153 -1.694285 -0.038594 1.073496 2.994925 -15.794367 -2.085355 -0.115001 0.147963 -30.285038 9.288344 0.325805 -60.348926 -0.624824 5.923240 13.069824 -22.730357 -5.538996 2.678589 -0.383005 -18.936663 31.698216 -5.308503 -0.442878 53.957975 -0.613814 12.106972 -22.549334 31.577678 -16.117373 4.658972 3.273494 -14.822077 
-0.178392 0.268976 0.997589 90.479848 -0.011757 86.927411 -0.859665 -0.877115 3.455141 -3.815684 -10.352947 9.020026 4.632566 7.519250 -13.955717 0.000000 -0.000000 0.000000 1.094287 -2.118908 0.428805 0.417148 -3.057340 14.507176 1.749232 -9.979195 -13.146857 0.000000 -0.000000 0.000000 0.581198 1.234367 9.755157 1.774807 -0.392293 -2.644734 1.146515 -1.779944 -0.105377 0.916927 3.169034 -14.982853 -1.856771 0.218175 0.312195 -29.928713 9.476876 0.617910 -60.502240 -0.253744 4.752370 11.469844 -14.280752 -5.829440 1.073003 0.138820 -18.149673 31.663347 -5.889432 -0.705172 54.808343 -1.177076 11.242275 -19.507052 24.586870 -15.072128 5.114136 3.409882 -15.081364 
-0.180070 0.269679 0.997608 90.698998 0.093712 86.995334 -0.601850 -0.590414 3.430752 -3.961427 -10.743646 8.653044 4.396107 7.489118 -13.999918 0.000000 -0.000000 0.000000 1.282236 -2.380300 0.401091 0.389067 -2.769992 14.252233 1.485978 -10.118207 -12.853544 0.000000 -0.000000 0.000000 0.786691 1.055717 9.381882 1.813443 -0.856110 -2.196812 1.083316 -1.872396 -0.031126 0.798043 3.069024 -14.710258 -1.828918 0.447500 0.086816 -29.916951 9.822459 0.838990 -60.854117 0.253093 3.988752 11.532893 -9.830604 -5.971034 0.540374 0.879149 -16.859651 31.361038 -5.850060 -0.936912 55.801525 -1.022200 10.228039 -17.657829 17.848967 -14.787166 6.230734 2.745440 -15.595120 
-0.181895 0.269890 0.997510 90.552991 0.095247 86.977078 -0.557009 -0.666510 3.409928 -4.095225 -10.696434 8.479262 4.467993 7.677440 -13.748566 0.000000 -0.000000 0.000000 1.355897 -2.212106 0.242278 0.350766 -2.639978 14.339777 1.294525 -10.272334 -12.745815 0.000000 -0.000000 0.000000 0.780556 0.858842 9.011703 1.838552 -1.024146 -1.813417 1.060598 -2.208110 0.202227 0.856712 3.128610 -14.213145 -1.852767 0.593514 -0.247365 -29.781972 10.195138 1.448012 -61.510331 0.670034 3.895135 12.111804 -8.147206 -5.894227 1.086110 1.247222 -16.425010 31.194136 -5.274640 -0.359620 56.399477 -0.192496 9.846528 -16.510369 11.865527 -14.836376 6.547566 1.892991 -15.946798 
-0.184993 0.270464 0.998022 90.119559 0.086925 87.149049 -0.610543 -0.553821 3.077212 -4.047132 -10.422759 8.295259 4.413797 7.776242 -13.507763 0.000000 -0.000000 0.000000 1.394535 -2.098453 -0.369777 0.223139 -2.374859 14.661637 1.433280 -10.127360 -12.732734 0.000000 -0.000000 0.000000 0.855635 0.846912 9.651521 1.842154 -0.792643 -2.183855 1.144310 -1.926351 0.056470 0.754578 2.407506 -14.506025 -1.721073 -0.111281 0.069081 -29.854168 10.560399 1.465121 -61.359418 1.037746 3.755702 11.776317 -8.187194 -5.520999 1.308490 0.767938 -15.754649 31.227285 -6.082485 -1.353652 56.209793 -0.638514 8.970736 -15.530474 8.898173 -14.052399 6.775911 1.569960 -14.603454 
-0.188880 0.270838 0.998202 89.817557 0.126149 87.318158 -0.589727 -0.484120 2.566136 -4.081106 -10.184147 8.323900 4.393925 7.853486 -13.199373 0.000000 -0.000000 0.000000 1.433186 -1.780087 -0.843530 0.238379 -2.306761 14.769637 1.321041 -10.188845 -12.548895 0.000000 -0.000000 0.000000 0.992964 0.597221 9.710527 1.880089 -0.689323 -2.256025 0.994121 -2.154173 0.234615 0.912854 2.037569 -14.039174 -1.726544 -0.858986 0.129858 -29.802825 11.106325 1.612643 -61.161703 1.139415 4.130236 11.599468 -10.320548 -5.080475 0.310799 0.392567 -16.523623 31.335364 -6.063909 -0.879700 56.133510 -0.516903 9.376966 -15.389469 8.217097 -13.907465 6.788277 1.147706 -14.516744 
